<svg version="1.2" baseProfile="tiny-ps" xmlns="http://www.w3.org/2000/svg" viewBox="0 0 100 100" width="100" height="100">
	<title>misis-logo-white-svg</title>
	<style>
		tspan { white-space:pre }
		.shp0 { fill: #ffffff } 
	</style>
	<path id="Layer" fill-rule="evenodd" class="shp0" d="M55.69 25.12C64.74 25.12 73.2 29.61 78.27 37.11C83.33 44.61 84.34 54.14 80.96 62.53C77.57 70.92 70.24 77.09 61.39 78.98C52.54 80.87 43.33 78.24 36.81 71.96C36.76 71.91 36.72 71.86 36.7 71.79C36.67 71.73 36.66 71.66 36.66 71.59C36.66 71.53 36.67 71.46 36.7 71.4C36.72 71.33 36.76 71.28 36.81 71.23L41.99 66.05C42.04 66 42.1 65.96 42.16 65.93C42.23 65.9 42.29 65.89 42.37 65.89C42.44 65.89 42.5 65.9 42.57 65.93C42.63 65.96 42.69 66 42.74 66.05C48.21 71.22 56.23 72.65 63.15 69.67C70.06 66.69 74.54 59.88 74.54 52.35C74.54 44.83 70.06 38.02 63.15 35.04C56.23 32.06 48.21 33.49 42.74 38.66C42.69 38.71 42.63 38.75 42.57 38.77C42.51 38.8 42.44 38.81 42.37 38.81C42.3 38.81 42.23 38.8 42.17 38.77C42.11 38.75 42.05 38.71 42 38.66L36.79 33.45C36.74 33.4 36.7 33.34 36.68 33.28C36.65 33.22 36.64 33.15 36.64 33.08C36.64 33.01 36.65 32.94 36.68 32.88C36.7 32.82 36.74 32.76 36.79 32.71C38.04 31.5 39.41 30.42 40.87 29.47C42.32 28.52 43.87 27.72 45.48 27.07C47.1 26.42 48.77 25.93 50.48 25.59C52.19 25.26 53.92 25.1 55.66 25.1M38.98 11.66C33.68 13.83 28.85 17.02 24.77 21.05C20.69 25.08 17.44 29.87 15.2 35.14C12.95 40.42 11.76 46.08 11.69 51.81C11.69 51.88 11.68 51.95 11.65 52.01C11.63 52.08 11.59 52.14 11.54 52.19C11.49 52.24 11.44 52.28 11.37 52.31C11.31 52.33 11.24 52.35 11.17 52.35L3.83 52.35C3.76 52.35 3.7 52.34 3.63 52.31C3.57 52.29 3.51 52.25 3.47 52.2C3.42 52.15 3.38 52.1 3.35 52.04C3.33 51.97 3.31 51.91 3.31 51.84C3.38 45.05 4.76 38.34 7.39 32.08C10.02 25.82 13.84 20.13 18.64 15.33C23.44 10.53 29.13 6.71 35.39 4.08C41.65 1.45 48.36 0.07 55.15 0C55.22 0 55.28 0.02 55.35 0.04C55.41 0.07 55.46 0.11 55.51 0.16C55.56 0.2 55.6 0.26 55.62 0.32C55.65 0.39 55.66 0.45 55.66 0.52L55.69 8.34C67.35 8.28 78.55 12.85 86.85 21.05C95.14 29.26 99.84 40.42 99.91 52.09C99.98 63.76 95.4 74.98 87.2 83.28C78.99 91.57 67.83 96.27 56.16 96.34C56.09 96.34 56.03 96.32 55.97 96.29C55.91 96.27 55.85 96.23 55.81 96.18C55.76 96.13 55.72 96.08 55.7 96.01C55.67 95.95 55.66 95.89 55.66 95.82L55.66 88.49C55.66 88.42 55.67 88.35 55.7 88.28C55.73 88.22 55.77 88.16 55.82 88.11C55.87 88.06 55.93 88.02 56 87.99C56.07 87.97 56.14 87.96 56.21 87.96C65.65 87.96 74.71 84.21 81.38 77.53C88.06 70.86 91.81 61.8 91.81 52.36C91.81 42.92 88.06 33.86 81.38 27.19C74.71 20.51 65.65 16.76 56.21 16.76C56.14 16.76 56.07 16.75 56 16.73C55.93 16.7 55.87 16.66 55.82 16.61C55.77 16.56 55.73 16.5 55.7 16.44C55.67 16.37 55.66 16.3 55.66 16.23L55.66 8.37L55.66 8.36C49.94 8.36 44.27 9.48 38.98 11.66ZM59.67 62.03C55.75 63.65 51.25 62.76 48.26 59.76C45.26 56.77 44.37 52.27 45.99 48.35C47.61 44.44 51.43 41.89 55.66 41.89C57.03 41.89 58.4 42.16 59.67 42.69C60.94 43.21 62.09 43.98 63.06 44.96C64.04 45.93 64.81 47.08 65.33 48.35C65.86 49.62 66.13 50.99 66.13 52.36C66.13 56.59 63.58 60.41 59.67 62.03Z" />
</svg>