<svg xmlns="http://www.w3.org/2000/svg" viewBox="0 0 280.64 135.44"><path d="M41.89,63.35V104.2a.52.52,0,0,1-.52.51H34a.52.52,0,0,1-.53-.52V90.06l.63-14h-.63L21.62,93H20.27L8.37,76H7.75l.63,14V104.2a.52.52,0,0,1-.52.52H.52A.52.52,0,0,1,0,104.2V63.35a.53.53,0,0,1,.52-.53H7.83a1.05,1.05,0,0,1,.86.44L20.94,80.81,33.2,63.27a1,1,0,0,1,.86-.44h7.31a.53.53,0,0,1,.53.53m45.56-.53h-7.5a1,1,0,0,0-.86.46L60.74,89.75h-.63l.63-14.35v-12a.53.53,0,0,0-.52-.53H52.88a.53.53,0,0,0-.52.53V104.2a.52.52,0,0,0,.52.52h6a1,1,0,0,0,.86-.45L79.59,75.7h.63l-.63,14.35v14.14h0a.52.52,0,0,0,.52.52h7.33a.53.53,0,0,0,.53-.51V63.35a.53.53,0,0,0-.53-.53m77.49,9.42h-6.45a1.06,1.06,0,0,0-.86.46L143.47,93.2h-.63l.63-12.57V72.78h0a.53.53,0,0,0-.53-.53h-6.28a.53.53,0,0,0-.53.52V104.2a.52.52,0,0,0,.52.52h6.45a1,1,0,0,0,.86-.45l14.16-20.49h.63l-.63,12.56v7.85h0a.52.52,0,0,0,.53.52h6.28a.53.53,0,0,0,.52-.51V72.78a.53.53,0,0,0-.52-.53M129.4,101l-2.93-5.87a.54.54,0,0,0-.75-.18,16,16,0,0,1-9.13,2.64c-7.63,0-13-6.19-13-13.82S109,70,116.6,70a16,16,0,0,1,9.13,2.64.53.53,0,0,0,.74-.18l2.94-5.88a.54.54,0,0,0-.17-.76,22,22,0,1,0,0,36,.54.54,0,0,0,.17-.76m77.49,0L204,95.15a.54.54,0,0,0-.75-.18,16.05,16.05,0,0,1-9.13,2.64c-7.63,0-13-6.19-13-13.82S186.46,70,194.09,70a16,16,0,0,1,9.13,2.64.53.53,0,0,0,.74-.18l2.94-5.88a.54.54,0,0,0-.18-.76,22,22,0,1,0,0,36,.54.54,0,0,0,.17-.76" fill="#fff"/><path d="M247.13,52.36a10.47,10.47,0,1,1-10.47-10.47,10.47,10.47,0,0,1,10.47,10.47M236.66.52a.52.52,0,0,0-.51-.52,52.36,52.36,0,0,0-51.84,51.84.52.52,0,0,0,.52.51h7.34a.53.53,0,0,0,.52-.54,44,44,0,0,1,44-43.45Zm0,7.85h0v7.86a.53.53,0,0,0,.55.53,35.6,35.6,0,0,1,0,71.2.53.53,0,0,0-.55.53v7.33a.52.52,0,0,0,.5.52,44,44,0,0,0-.5-88m0,16.76a27.14,27.14,0,0,0-18.87,7.61.52.52,0,0,0,0,.74L223,38.66a.53.53,0,0,0,.74,0,18.85,18.85,0,1,1,0,27.39.52.52,0,0,0-.75,0l-5.18,5.18a.51.51,0,0,0,0,.73,27.23,27.23,0,1,0,18.88-46.84" fill="#fff"/><path d="M10.91,118.55a.2.2,0,0,1,.19.28l-4.6,9.92c-1.14,2.39-2.08,3.45-3.81,3.45H2.6A4,4,0,0,1,1.42,132a.21.21,0,0,1-.13-.21v-1.38c0-.13.09-.18.22-.13a2,2,0,0,0,.76.16h.08c.89,0,1.41-.37,2.11-1.85l.05-.1L0,118.83a.2.2,0,0,1,.19-.28H1.84a.32.32,0,0,1,.3.18L4.56,124l1,2.75h.05l1-2.75L9,118.73a.32.32,0,0,1,.3-.18Z" fill="#fff"/><path d="M19.32,122.39a.18.18,0,0,1,.19.19v9.22a.18.18,0,0,1-.19.19H17.8a.18.18,0,0,1-.19-.19v-3.94H13.23v3.94A.18.18,0,0,1,13,132H11.52a.18.18,0,0,1-.19-.19v-9.22a.18.18,0,0,1,.19-.19H13a.18.18,0,0,1,.19.19v3.77h4.37v-3.77a.18.18,0,0,1,.19-.19Z" fill="#fff"/><path d="M29.7,122.39a.18.18,0,0,1,.19.19v9.22a.18.18,0,0,1-.19.19H28.17a.18.18,0,0,1-.19-.19v-3.94L28,125h-.16l-1.57,2.74-2.36,4c-.07.12-.12.2-.25.2H21.83a.18.18,0,0,1-.19-.19v-9.22a.18.18,0,0,1,.19-.19h1.52a.18.18,0,0,1,.19.19v3.67l-.06,3.1h.16l1.76-3,2.17-3.76c.07-.12.12-.2.25-.2Z" fill="#fff"/><path d="M35.94,122.39c2.32,0,3.46.92,3.46,2.49V125a2.2,2.2,0,0,1-1.3,2,2.14,2.14,0,0,1,1.64,2.14v.15c0,1.57-1.14,2.65-3.46,2.65H32.2a.18.18,0,0,1-.19-.19v-9.22a.18.18,0,0,1,.19-.19Zm-2,4.18H35.7c1.28,0,1.79-.66,1.79-1.36V125c0-.74-.48-1.24-1.76-1.24H33.91Zm0,4H36c1.28,0,1.76-.6,1.76-1.35v-.18c0-.79-.48-1.36-1.76-1.36H33.91Z" fill="#fff"/><path d="M45.71,122.14c2.29,0,3.83,1.44,3.83,4.25v.82a.28.28,0,0,1-.28.28h-6v.66A2.46,2.46,0,0,0,46,130.71h.09A7.59,7.59,0,0,0,49,130a.13.13,0,0,1,.19.13v1.15a.27.27,0,0,1-.17.29,8.35,8.35,0,0,1-3.14.69h-.16A4,4,0,0,1,41.33,128v-1.25c0-2.89,1.85-4.57,4.17-4.57Zm-.18,1.43c-1.33,0-2.21,1-2.25,2.76h4.48c0-1.87-.68-2.76-2.11-2.76Z" fill="#fff"/><path d="M56.35,122.14c2.32,0,3.57,1.7,3.57,4.22v1.54c0,2.81-1.54,4.34-3.75,4.34H56a3.62,3.62,0,0,1-2.6-1.12V135a.18.18,0,0,1-.19.19H51.72a.18.18,0,0,1-.19-.19V122.58a.18.18,0,0,1,.19-.19h1.35a.18.18,0,0,1,.18.15l.07.95a3.91,3.91,0,0,1,2.88-1.35Zm-.61,1.55a3.28,3.28,0,0,0-2.3,1.11v4.75a3.34,3.34,0,0,0,2.3,1.13h.07c1.4,0,2.18-.93,2.18-2.7v-1.59c0-1.77-.78-2.7-2.18-2.7Z" fill="#fff"/><path d="M66.32,122.14a6,6,0,0,1,2.61.69.27.27,0,0,1,.17.29v1.15a.13.13,0,0,1-.19.13,5.22,5.22,0,0,0-2.35-.71h-.13a2.64,2.64,0,0,0-2.71,2.94v1.12a2.64,2.64,0,0,0,2.71,2.94h.13a5.22,5.22,0,0,0,2.35-.71.13.13,0,0,1,.19.13v1.15a.27.27,0,0,1-.17.29,6,6,0,0,1-2.61.69h-.21a4.14,4.14,0,0,1-4.33-4.46V126.6a4.14,4.14,0,0,1,4.33-4.46Z" fill="#fff"/><path d="M79.11,122.39a.18.18,0,0,1,.19.19v9.22a.18.18,0,0,1-.19.19H77.59a.18.18,0,0,1-.19-.19v-3.94l.06-2.83h-.16l-1.57,2.74-2.36,4c-.07.12-.12.2-.25.2H71.25a.18.18,0,0,1-.19-.19v-9.22a.18.18,0,0,1,.19-.19h1.52a.18.18,0,0,1,.19.19v3.67l-.06,3.1h.16l1.76-3L77,122.59c.07-.12.12-.2.25-.2Z" fill="#fff"/><path d="M88.74,122.39a.18.18,0,0,1,.19.19v1.13a.18.18,0,0,1-.19.19H85.79v7.9a.18.18,0,0,1-.19.19H84.07a.18.18,0,0,1-.19-.19v-7.9H80.94a.18.18,0,0,1-.19-.19v-1.13a.18.18,0,0,1,.19-.19Z" fill="#fff"/><path d="M94.41,122.14c2.29,0,3.83,1.44,3.83,4.25v.82a.28.28,0,0,1-.28.28H92v.66a2.46,2.46,0,0,0,2.71,2.55h.09a7.59,7.59,0,0,0,2.88-.74.13.13,0,0,1,.19.13v1.15a.27.27,0,0,1-.17.29,8.35,8.35,0,0,1-3.14.69h-.16A4,4,0,0,1,90,128v-1.25c0-2.89,1.85-4.57,4.17-4.57Zm-.18,1.43c-1.33,0-2.21,1-2.25,2.76h4.48c0-1.87-.68-2.76-2.11-2.76Z" fill="#fff"/><path d="M107.22,122.39a.18.18,0,0,1,.19.19v1.13a.18.18,0,0,1-.19.19h-2.95v7.9a.18.18,0,0,1-.19.19h-1.52a.18.18,0,0,1-.19-.19v-7.9H99.42a.18.18,0,0,1-.19-.19v-1.13a.18.18,0,0,1,.19-.19Z" fill="#fff"/><path d="M120.78,122.39a.18.18,0,0,1,.19.19v9.22a.18.18,0,0,1-.19.19h-1.52a.18.18,0,0,1-.19-.19v-3.94H114.7v3.94a.18.18,0,0,1-.19.19H113a.18.18,0,0,1-.19-.19v-9.22a.18.18,0,0,1,.19-.19h1.52a.18.18,0,0,1,.19.19v3.77h4.37v-3.77a.18.18,0,0,1,.19-.19Z" fill="#fff"/><path d="M126.94,122.14c2.13,0,3.47,1,3.49,3.63v6a.18.18,0,0,1-.19.19h-1.35a.18.18,0,0,1-.18-.15l-.09-1a4.31,4.31,0,0,1-3,1.43h-.11a2.65,2.65,0,0,1-2.89-2.74v-.15c0-2,1.34-2.95,4.24-3.11l1.67-.08v-.33c0-1.52-.52-2.16-2-2.16h-.06a8.86,8.86,0,0,0-2.92.68.14.14,0,0,1-.19-.13v-1.13a.26.26,0,0,1,.17-.29,9.68,9.68,0,0,1,3.31-.66Zm0,5.25c-1.69,0-2.44.65-2.44,1.74v.08a1.54,1.54,0,0,0,1.74,1.54h.09a3,3,0,0,0,2.17-1.12v-2.28Z" fill="#fff"/><path d="M140.56,122.39a.18.18,0,0,1,.18.26l-3.56,10c-.59,1.66-1.35,2.8-3.07,2.8H134a5,5,0,0,1-1.57-.3.24.24,0,0,1-.15-.24v-1.12a.15.15,0,0,1,.21-.15,3.79,3.79,0,0,0,1.3.28h.06c.68,0,1.06-.34,1.41-1.27l.24-.66h-.25a.24.24,0,0,1-.23-.17l-3.25-9.17a.18.18,0,0,1,.19-.26h1.52a.24.24,0,0,1,.23.17l1.59,4.41.94,3.41h0l.94-3.41,1.59-4.41a.24.24,0,0,1,.23-.17Z" fill="#fff"/><path d="M150.34,131.71a.17.17,0,0,1-.14.28h-1.7a.28.28,0,0,1-.25-.13l-2.71-4h-1.39v4a.18.18,0,0,1-.19.19h-1.52a.18.18,0,0,1-.19-.19v-9.22a.18.18,0,0,1,.19-.19H144a.18.18,0,0,1,.19.19v3.73h1.39l2.38-3.77a.3.3,0,0,1,.26-.14h1.61a.17.17,0,0,1,.14.27L147.22,127Z" fill="#fff"/><path d="M159.88,122.39a.18.18,0,0,1,.19.19v9.22a.18.18,0,0,1-.19.19h-1.52a.18.18,0,0,1-.19-.19v-3.94l.06-2.83h-.16l-1.57,2.74-2.36,4c-.07.12-.12.2-.25.2H152a.18.18,0,0,1-.19-.19v-9.22a.18.18,0,0,1,.19-.19h1.52a.18.18,0,0,1,.19.19v3.67l-.06,3.1h.16l1.76-3,2.17-3.76c.07-.12.12-.2.25-.2Z" fill="#fff"/><path d="M174.18,122.39a.18.18,0,0,1,.19.19v9.22a.18.18,0,0,1-.19.19h-1.52a.18.18,0,0,1-.19-.19v-3.94l.06-2.83h-.16l-1.57,2.74-2.36,4c-.07.12-.12.2-.25.2h-1.86a.18.18,0,0,1-.19-.19v-9.22a.18.18,0,0,1,.19-.19h1.52a.18.18,0,0,1,.19.19v3.67l-.06,3.1h.16l1.76-3,2.17-3.76c.07-.12.12-.2.25-.2Z" fill="#fff"/><path d="M187.74,122.39a.18.18,0,0,1,.19.19v1.13a.18.18,0,0,1-.19.19h-2.95v7.9a.18.18,0,0,1-.19.19h-1.52a.18.18,0,0,1-.19-.19v-7.9h-2.95a.18.18,0,0,1-.19-.19v-1.13a.18.18,0,0,1,.19-.19Z" fill="#fff"/><path d="M193.42,122.14c2.29,0,3.83,1.44,3.83,4.25v.82a.28.28,0,0,1-.28.28h-6v.66a2.46,2.46,0,0,0,2.71,2.55h.09a7.59,7.59,0,0,0,2.88-.74.13.13,0,0,1,.19.13v1.15a.27.27,0,0,1-.17.29,8.35,8.35,0,0,1-3.15.69h-.16A4,4,0,0,1,189,128v-1.25c0-2.89,1.85-4.57,4.17-4.57Zm-.18,1.43c-1.33,0-2.22,1-2.25,2.76h4.48c0-1.87-.68-2.76-2.11-2.76Z" fill="#fff"/><path d="M206.55,122.39a.17.17,0,0,1,.14.27l-2.79,4.43,2.92,4.63a.17.17,0,0,1-.14.28h-1.63a.29.29,0,0,1-.25-.13l-1.7-2.67-.47-1.05h-.08l-.47,1.05-1.7,2.67a.29.29,0,0,1-.25.13h-1.63a.17.17,0,0,1-.14-.28l2.92-4.63-2.8-4.43a.17.17,0,0,1,.14-.27h1.59a.3.3,0,0,1,.26.14l1.61,2.5.47,1.05h.08l.47-1.05,1.6-2.5a.31.31,0,0,1,.26-.14Z" fill="#fff"/><path d="M216.29,122.39a.18.18,0,0,1,.19.19v9.22a.18.18,0,0,1-.19.19h-1.52a.18.18,0,0,1-.19-.19v-3.94H210.2v3.94a.18.18,0,0,1-.19.19h-1.52a.18.18,0,0,1-.19-.19v-9.22a.18.18,0,0,1,.19-.19H210a.18.18,0,0,1,.19.19v3.77h4.37v-3.77a.18.18,0,0,1,.19-.19Z" fill="#fff"/><path d="M222.94,122.14a4.07,4.07,0,0,1,4.27,4.34v1.42a4.07,4.07,0,0,1-4.27,4.34h-.21a4.07,4.07,0,0,1-4.27-4.34v-1.42a4.07,4.07,0,0,1,4.27-4.34Zm-.17,1.55c-1.38,0-2.36.93-2.36,2.7V128c0,1.77,1,2.7,2.36,2.7h.14c1.38,0,2.36-.93,2.36-2.7v-1.59c0-1.77-1-2.7-2.36-2.7Z" fill="#fff"/><path d="M237.36,122.39a.18.18,0,0,1,.19.19v9.22a.18.18,0,0,1-.19.19h-1.52a.18.18,0,0,1-.19-.19v-7.9h-3.3l-.43,5.6c-.12,1.53-.74,2.74-2.34,2.74h-.12a2.69,2.69,0,0,1-1.09-.25.24.24,0,0,1-.15-.24v-1a.15.15,0,0,1,.21-.15,1.54,1.54,0,0,0,.6.13h.09c.62,0,.88-.55.95-1.39l.53-6.71a.19.19,0,0,1,.19-.19Z" fill="#fff"/><path d="M244,122.14a4.07,4.07,0,0,1,4.27,4.34v1.42a4.07,4.07,0,0,1-4.27,4.34h-.21a4.07,4.07,0,0,1-4.27-4.34v-1.42a4.07,4.07,0,0,1,4.27-4.34Zm-.17,1.55c-1.38,0-2.36.93-2.36,2.7V128c0,1.77,1,2.7,2.36,2.7H244c1.38,0,2.36-.93,2.36-2.7v-1.59c0-1.77-1-2.7-2.36-2.7Z" fill="#fff"/><path d="M256.38,122.39a.18.18,0,0,1,.19.19v1.13a.18.18,0,0,1-.19.19h-4.23v7.9a.18.18,0,0,1-.19.19h-1.52a.18.18,0,0,1-.19-.19v-9.22a.18.18,0,0,1,.19-.19Z" fill="#fff"/><path d="M266.08,122.39a.18.18,0,0,1,.19.19v9.22a.18.18,0,0,1-.19.19h-1.52a.18.18,0,0,1-.19-.19v-3.94l.06-2.83h-.16l-1.57,2.74-2.36,4c-.07.12-.12.2-.25.2h-1.86a.18.18,0,0,1-.19-.19v-9.22a.18.18,0,0,1,.19-.19h1.52a.18.18,0,0,1,.19.19v3.67l-.06,3.1H260l1.76-3,2.17-3.76c.07-.12.12-.2.25-.2Z" fill="#fff"/><path d="M276.45,122.39a.18.18,0,0,1,.19.19v9.22a.18.18,0,0,1-.19.19h-1.52a.18.18,0,0,1-.19-.19v-3.94l.06-2.83h-.16l-1.57,2.74-2.36,4c-.07.12-.12.2-.25.2h-1.86a.18.18,0,0,1-.19-.19v-9.22a.18.18,0,0,1,.19-.19h1.52a.18.18,0,0,1,.19.19v3.67l-.06,3.1h.16l1.76-3,2.17-3.76c.07-.12.12-.2.25-.2ZM275,119c.13-.07.25,0,.25.13V120a.29.29,0,0,1-.13.26,4.54,4.54,0,0,1-5,0A.29.29,0,0,1,270,120v-.94c0-.14.11-.2.25-.13a4.45,4.45,0,0,0,4.74,0Z" fill="#fff"/></svg>
